# AST/ASF file generated using VICON BodyLanguage
# -----------------------------------------------
:version 1.10
:name VICON
:units
  mass 1.0
  length 0.45
  angle deg
:documentation
   .ast/.asf automatically generated from VICON data using
   VICON BodyBuilder and BodyLanguage model FoxedUp or BRILLIANT.MOD
:root
   order TX TY TZ RX RY RZ
   axis XYZ
   position 0 0 0  
   orientation 0 0 0 
:bonedata
  begin
     id 1 
     name lhipjoint
     direction 0.440178 -0.822639 0.359871 
     length 2.53113 
     axis 0 0 0  XYZ
  end
  begin
     id 2 
     name lfemur
     direction 0.34202 -0.939693 0  
     length 7.88132  
     axis 0 0 20  XYZ
    dof rx ry rz
    limits (-160.0 20.0)
           (-70.0 70.0)
           (-60.0 70.0)
  end
  begin
     id 3 
     name ltibia
     direction 0.34202 -0.939693 0   
     length 8.43783   
     axis 0 0 20   XYZ
    dof rx
    limits (-10.0 170.0)
  end
  begin
     id 4 
     name lfoot
     direction 0.0886351 -0.243523 0.965837   
     length 2.63414   
     axis -90 7.62852e-016 20   XYZ
    dof rx rz
    limits (-45.0 90.0)
           (-70.0 20.0)
  end
  begin
     id 5 
     name ltoes
     direction 1.53703e-011 -4.21717e-011 1   
     length 1.31427   
     axis -90 7.62852e-016 20   XYZ
    dof rx
    limits (-90.0 20.0)
  end
  begin
     id 6 
     name rhipjoint
     direction -0.399779 -0.839773 0.367367   
     length 2.47948  
     axis 0 0 0  XYZ 
  end
  begin
     id 7 
     name rfemur
     direction -0.34202 -0.939693 0   
     length 7.74806   
     axis 0 0 -20   XYZ
    dof rx ry rz
    limits (-160.0 20.0)
           (-70.0 70.0)
           (-70.0 60.0)
  end
  begin
     id 8 
     name rtibia
     direction -0.34202 -0.939693 0   
     length 8.74432   
     axis 0 0 -20   XYZ
    dof rx
    limits (-10.0 170.0)
 end
 begin
     id 9 
     name rfoot
     direction -0.108514 -0.298139 0.948334   
     length 2.66102  
     axis -90 -7.62852e-016 -20   XYZ
    dof rx rz
    limits (-45.0 90.0)
           (-20.0 70.0)
  end
  begin
     id 10 
     name rtoes
     direction -1.53392e-011 -4.22077e-011 1   
     length 1.31983   
     axis -90 -7.62852e-016 -20   XYZ
    dof rx
    limits (-90.0 20.0)
  end
  begin
     id 11 
     name lowerback
     direction 0.0113257 0.999866 0.0118602   
     length 2.58694   
     axis 0 0 0   XYZ
    dof rx ry rz
    limits (-20.0 45.0)
           (-30.0 30.0)
           (-30.0 30.0)
  end
  begin
     id 12 
     name upperback
     direction -0.0164747 0.995193 -0.0965375   
     length 2.52368   
     axis 0 0 0   XYZ
    dof rx ry rz
    limits (-20.0 45.0)
           (-30.0 30.0)
           (-30.0 30.0)
  end
  begin
     id 13 
     name thorax
     direction -0.0194301 0.99433 -0.104552   
     length 2.56099   
     axis 0 0 0   XYZ
    dof rx ry rz
    limits (-20.0 45.0)
           (-30.0 30.0)
           (-30.0 30.0)
  end
  begin
     id 14 
     name lowerneck
     direction 0.0148543 0.995587 -0.092657   
     length 1.71582   
     axis 0 0 0   XYZ
    dof rx ry rz
    limits (-20.0 45.0)
           (-30.0 30.0)
           (-30.0 30.0)
  end
  begin
     id 15 
     name upperneck
     direction -0.0135467 0.993656 -0.111639   
     length 1.68937   
     axis 0 0 0   XYZ
    dof rx ry rz
    limits (-20.0 45.0)
           (-30.0 30.0)
           (-30.0 30.0)
  end
  begin
     id 16
     name head
     direction -0.00615349 0.999547 -0.029448  
     length 1.7462  
     axis 0 0 0   XYZ
    dof rx ry rz
    limits (-20.0 45.0)
           (-30.0 30.0)
           (-30.0 30.0)
  end
  begin
     id 17 
     name lclavicle
     direction 0.988267 0.149885 0.0293713  
     length 4.47222  
     axis 0 0 0   XYZ
    dof ry rz
    limits (-20.0 10.0)
           (0.0 20.0)
  end
  begin
     id 18 
     name lhumerus
     direction 1 -4.48986e-011 -1.14833e-027   
     length 5.37148   
     axis 180 -30 -90   XYZ
    dof rx ry rz
    limits (-60.0 90.0)
           (-90.0 90.0)
           (-90.0 90.0)
  end
  begin
     id 19
     name lradius
     direction 0.999998 0.00170963 -0.000987055   
     length 3.94212   
     axis 180 -30 -90   XYZ
    dof rx
    limits (-10.0 170.0)
  end
  begin
     id 20
     name lwrist
     direction 0.999998 7.53149e-005 -0.00194706   
     length 1.97106   
     axis 4.65056e-015 90 90   XYZ
    dof ry
    limits (-180.0 0.0)
 end
  begin
     id 21 
     name lhand
     direction 1 -4.48973e-011 -1.31746e-026   
     length 1.17917   
     axis 8.4065e-015 90 90   XYZ
    dof rx rz
    limits (-90.0 90.0)
           (-45.0 45.0)
  end
  begin
     id 22 
     name lfingers
     direction 1 -4.49107e-011 -2.63492e-026   
     length 0.950679   
     axis 1.6813e-014 90 90   XYZ
    dof rx
    limits (0.0 90.0)
  end
  begin
     id 23
     name lthumb
     direction 0.707107 -6.35048e-011 0.707107   
     length 1.36499   
     axis -90 45 2.85299e-015   XYZ
    dof rx rz
    limits (-45.0 45.0)
           (-45.0 45.0)
  end
  begin
     id 24 
     name rclavicle
     direction -0.996699 0.0642895 -0.0495725   
     length 4.62611  
     axis 0 0 0   XYZ 
    dof ry rz
    limits (-10.0 20.0)
           (-20.0 0.0)
  end
  begin
     id 25 
     name rhumerus
     direction -1 -4.48919e-011 -2.41059e-027  
     length 5.4981   
     axis 180 30 90   XYZ
    dof rx ry rz
    limits (-90.0 60.0)
           (-90.0 90.0)
           (-90.0 90.0)
  end
  begin
     id 26 
     name rradius
     direction -0.999999 0.00118101 -0.000681858   
     length 3.48381   
     axis 180 30 90   XYZ
    dof rx
    limits (-10.0 170.0)
  end
  begin
     id 27 
     name rwrist
     direction -0.999999 0.000321823 -0.00132288   
     length 1.7419   
     axis 4.65056e-015 -90 -90   XYZ
    dof ry
    limits (-180.0 0.0)
  end
  begin
     id 28
     name rhand
     direction -1 -4.49022e-011 -1.31746e-026   
     length 1.34932   
     axis 8.4065e-015 -90 -90   XYZ
    dof rx rz
    limits (-90.0 90.0)
           (-45.0 45.0)
  end
  begin
     id 29
     name rfingers
     direction -1 -4.49178e-011 -2.63492e-026   
     length 1.08785   
     axis 1.6813e-014 -90 -90   XYZ
    dof rx
    limits (0.0 90.0)
  end
  begin
     id 30
     name rthumb
     direction -0.707107 -6.34713e-011 0.707107   
     length 1.56195   
     axis -90 -45 -2.85299e-015   XYZ
    dof rx rz
    limits (-45.0 45.0)
           (-45.0 45.0)
  end
:hierarchy
  begin
    root lhipjoint rhipjoint lowerback
    lhipjoint lfemur
    lfemur ltibia
    ltibia lfoot
    lfoot ltoes
    rhipjoint rfemur
    rfemur rtibia
    rtibia rfoot
    rfoot rtoes
    lowerback upperback
    upperback thorax
    thorax lowerneck lclavicle rclavicle
    lowerneck upperneck
    upperneck head
    lclavicle lhumerus
    lhumerus lradius
    lradius lwrist
    lwrist lhand lthumb
    lhand lfingers
    rclavicle rhumerus
    rhumerus rradius
    rradius rwrist
    rwrist rhand rthumb
    rhand rfingers
  end

#!OML:ASF X:\für Bonn\!DataBase\2005_08_10_Bjorn_Final\c3d\bjorn.ASF
:FULLY-SPECIFIED
:DEGREES
16
root -7.21324 19.1805 -1.72 1812.32 -84.6861 -375.909
lowerback -1.72324 0.692078 3.9964
upperback 7.69548 0.450457 0.445705
thorax 9.12319 0.41599 -1.73204
lowerneck -7.66227 -1.585 5.48744
upperneck 4.12562 -2.54387 -2.26464
head 2.56465 -1.25058 -1.81161
rclavicle 2.31584e-014 5.36719e-015
rhumerus -26.949 -11.8919 -87.4577
rradius 36.8808
rwrist -5.66735
rhand -13.5459 9.13446
rfingers 7.12502
rthumb 12.5669 -20.4676
lclavicle 2.31584e-014 5.36719e-015
lhumerus -33.9811 21.2175 76.8814
lradius 15.7737
lwrist -50.9647
lhand -7.25807 -4.50204
lfingers 7.12502
lthumb 18.6226 24.6266
rfemur -5.31497 -4.22343 19.7434
rtibia 29.2026
rfoot -14.8923 12.6371
rtoes 0.704252
lfemur -16.6467 6.74457 -14.8576
ltibia 56.6696
lfoot -6.91795 -0.918714
ltoes -11.0411
17
root -7.36384 19.1743 -1.70997 1813.45 -84.8143 -377.011
lowerback -1.7408 0.803694 4.04275
upperback 7.69844 0.600564 0.40191
thorax 9.1483 0.495536 -1.7895
lowerneck -7.66136 -1.66843 5.37167
upperneck 4.06197 -2.64815 -2.18542
head 2.5398 -1.30272 -1.76768
rclavicle -2.10463e-014 -2.38542e-015
rhumerus -26.5546 -11.3098 -87.7598
rradius 37.7036
rwrist -6.2237
rhand -13.3454 9.01693
rfingers 7.12502
rthumb 12.7603 -20.5731
lclavicle -2.10463e-014 -2.38542e-015
lhumerus -34.138 20.5841 77.1118
lradius 15.9135
lwrist -49.8517
lhand -7.66369 -4.56978
lfingers 7.12502
lthumb 18.2324 24.5957
rfemur -4.69155 -4.33555 19.7574
rtibia 28.9487
rfoot -15.1999 12.9719
rtoes 0.746233
lfemur -17.4635 7.0469 -14.8748
ltibia 55.4316
lfoot -7.58757 -0.395662
ltoes -10.9532
18
root -7.51632 19.1681 -1.69831 1814.73 -84.9609 -378.237
lowerback -1.78899 0.921932 4.0878
upperback 7.68844 0.759386 0.358238
thorax 9.17833 0.579521 -1.84482
lowerneck -7.63242 -1.7572 5.22957
upperneck 3.98684 -2.75625 -2.08963
head 2.50632 -1.35671 -1.713
rclavicle -2.0276e-014 -2.98177e-015
rhumerus -26.1748 -10.7278 -88.0273
rradius 38.502
rwrist -6.75101
rhand -13.1753 8.86296
rfingers 7.12502
rthumb 12.9242 -20.7168
lclavicle -2.0276e-014 -2.98177e-015
lhumerus -34.33 19.9967 77.3219
lradius 16.0794
lwrist -48.808
lhand -8.0258 -4.68019
lfingers 7.12502
lthumb 17.884 24.5175
rfemur -4.07698 -4.4489 19.7627
rtibia 28.6619
rfoot -15.4769 13.3075
rtoes 0.737956
lfemur -18.2164 7.31959 -14.9002
ltibia 54.0573
lfoot -8.06804 -0.0347439
ltoes -10.9563
19
root -7.66649 19.1571 -1.68635 1816.03 -85.0819 -379.474
lowerback -1.81949 1.03799 4.14232
upperback 7.65289 0.918165 0.303981
thorax 9.17053 0.664116 -1.91684
lowerneck -7.56078 -1.84347 5.0894
upperneck 3.94027 -2.85951 -1.98332
head 2.47511 -1.40735 -1.65472
rclavicle 7.55382e-015 -5.76476e-015
rhumerus -25.8371 -10.1676 -88.2766
rradius 39.3067
rwrist -7.24267
rhand -12.9888 8.76943
rfingers 7.12502
rthumb 13.104 -20.7989
lclavicle 7.55382e-015 -5.76476e-015
lhumerus -34.5286 19.3078 77.5669
lradius 16.2651
lwrist -47.6081
lhand -8.35208 -4.80678
lfingers 7.12502
lthumb 17.57 24.4193
rfemur -3.47084 -4.56909 19.7703
rtibia 28.3545
rfoot -15.7528 13.641
rtoes 0.759286
lfemur -18.9305 7.57501 -14.9278
ltibia 52.5508
lfoot -8.31689 0.136193
ltoes -10.8518
20
root -7.81781 19.1475 -1.67333 1817.49 -85.2197 -380.849
lowerback -1.89059 1.1545 4.18279
upperback 7.60886 1.07622 0.263316
thorax 9.17726 0.747061 -1.96596
lowerneck -7.4833 -1.92319 4.95697
upperneck 3.86073 -2.95233 -1.91716
head 2.43213 -1.45444 -1.60994
rclavicle 4.42296e-015 -1.22253e-014
rhumerus -25.5055 -9.58264 -88.4742
rradius 40.1004
rwrist -7.73406
rhand -12.8452 8.74511
rfingers 7.12502
rthumb 13.2424 -20.8142
lclavicle 4.42296e-015 -1.22253e-014
lhumerus -34.7319 18.5577 77.8765
lradius 16.4705
lwrist -46.2741
lhand -8.72864 -4.92851
lfingers 7.12502
lthumb 17.2076 24.3296
rfemur -2.87292 -4.71503 19.7603
rtibia 27.997
rfoot -15.9457 13.9848
rtoes 0.886958
lfemur -19.617 7.79822 -14.9713
ltibia 50.9169
lfoot -8.50878 0.1563
ltoes -10.806
21
root -7.9696 19.1408 -1.65993 1819.04 -85.3667 -382.306
lowerback -1.96594 1.27012 4.21076
upperback 7.56579 1.23306 0.2287
thorax 9.18733 0.82822 -2.00143
lowerneck -7.42284 -2.00547 4.75774
upperneck 3.81394 -3.04457 -1.82292
head 2.40453 -1.50092 -1.54517
rclavicle -1.06723e-014 6.4605e-015
rhumerus -25.1413 -9.03586 -88.6428
rradius 40.8801
rwrist -8.12747
rhand -12.6563 8.74591
rfingers 7.12502
rthumb 13.4245 -20.8015
lclavicle -1.06723e-014 6.4605e-015
lhumerus -34.9276 17.8281 78.2083
lradius 16.7101
lwrist -45.0469
lhand -9.04528 -5.08725
lfingers 7.12502
lthumb 16.9029 24.1972
rfemur -2.23322 -4.8881 19.7387
rtibia 27.5541
rfoot -16.1071 14.3319
rtoes 0.761465
lfemur -20.2905 8.05042 -15.0218
ltibia 49.1927
lfoot -8.6319 0.0980695
ltoes -11.7678
22
root -8.12125 19.1407 -1.64583 1820.51 -85.517 -383.645
lowerback -2.06642 1.38227 4.21119
upperback 7.52219 1.38692 0.184607
thorax 9.21106 0.906625 -2.03107
lowerneck -7.39303 -2.08363 4.70738
upperneck 3.77114 -3.13802 -1.90026
head 2.3809 -1.55118 -1.56365
rclavicle 4.67144e-015 -7.35503e-015
rhumerus -24.7457 -8.47808 -88.8042
rradius 41.6292
rwrist -8.57354
rhand -12.5103 8.8773
rfingers 7.12502
rthumb 13.5653 -20.6608
lclavicle 4.67144e-015 -7.35503e-015
lhumerus -35.0907 17.0276 78.5787
lradius 17.0067
lwrist -43.8811
lhand -9.25272 -5.13202
lfingers 7.12502
lthumb 16.7032 24.1694
rfemur -1.57022 -5.077 19.6881
rtibia 27.0102
rfoot -16.1908 14.702
rtoes 0.75911
lfemur -20.9911 8.2771 -15.1014
ltibia 47.3924
lfoot -8.64479 0.0459191
ltoes -12.8238
23
root -8.27378 19.1436 -1.63103 1822.42 -85.6775 -385.42
lowerback -2.18594 1.51722 4.25268
upperback 7.47833 1.56855 0.13169
thorax 9.2503 1.00229 -2.08923
lowerneck -7.41476 -2.17924 4.6468
upperneck 3.76286 -3.25706 -1.96511
head 2.37762 -1.61361 -1.57901
rclavicle -1.57537e-014 1.59028e-015
rhumerus -24.3247 -7.95986 -88.9457
rradius 42.3671
rwrist -8.99437
rhand -12.4183 9.05809
rfingers 7.12502
rthumb 13.6538 -20.4741
lclavicle -1.57537e-014 1.59028e-015
lhumerus -35.2619 16.3184 78.872
lradius 17.3125
lwrist -42.9183
lhand -9.45375 -5.3088
lfingers 7.12502
lthumb 16.5096 24.0088
rfemur -0.873557 -5.27902 19.6434
rtibia 26.3769
rfoot -16.1877 15.0893
rtoes 0.79632
lfemur -21.6676 8.39901 -15.1212
ltibia 45.5273
lfoot -8.56897 -0.124593
ltoes -12.503
24
root -8.42573 19.1461 -1.61614 1824.11 -85.8207 -386.973
lowerback -2.29292 1.6373 4.24983
upperback 7.42342 1.73367 0.0890119
thorax 9.26671 1.08572 -2.11343
lowerneck -7.39913 -2.26483 4.59598
upperneck 3.73749 -3.36048 -2.05701
head 2.36187 -1.66908 -1.60311
rclavicle 1.10947e-014 -2.31087e-015
rhumerus -23.9279 -7.42793 -89.0497
rradius 43.1186
rwrist -9.38503
rhand -12.337 9.27656
rfingers 7.12502
rthumb 13.7322 -20.2503
lclavicle 1.10947e-014 -2.31087e-015
lhumerus -35.4589 15.7328 79.1162
lradius 17.6006
lwrist -42.1707
lhand -9.67606 -5.55197
lfingers 7.12502
lthumb 16.2956 23.7833
rfemur -0.154889 -5.51719 19.5736
rtibia 25.7017
rfoot -16.1884 15.4737
rtoes 0.710842
lfemur -22.305 8.4414 -15.1427
ltibia 43.5958
lfoot -8.4345 -0.32733
ltoes -12.1452
25
root -8.57804 19.1446 -1.60127 1826.28 -85.9704 -389.015
lowerback -2.42087 1.75428 4.26748
upperback 7.383 1.89157 0.0418248
thorax 9.31265 1.16771 -2.15341
lowerneck -7.41544 -2.35406 4.53542
upperneck 3.71612 -3.47039 -2.13133
head 2.35342 -1.72743 -1.62079
rclavicle -3.35305e-014 1.09658e-014
rhumerus -23.4752 -6.86935 -89.1572
rradius 43.8668
rwrist -9.79901
rhand -12.2482 9.47658
rfingers 7.12502
rthumb 13.8178 -20.0445
lclavicle -3.35305e-014 1.09658e-014
lhumerus -35.593 15.1025 79.3756
lradius 17.8611
lwrist -41.3445
lhand -9.92118 -5.75564
lfingers 7.12502
lthumb 16.0596 23.5988
rfemur 0.568808 -5.74751 19.5172
rtibia 25.0126
rfoot -16.1947 15.8499
rtoes 0.526901
lfemur -22.8901 8.58051 -15.1496
ltibia 41.5896
lfoot -8.25144 -0.579936
ltoes -12.4318
26
root -8.72936 19.1383 -1.58524 1828.24 -86.1043 -390.801
lowerback -2.58799 1.88508 4.26656
upperback 7.34166 2.06864 -0.0122691
thorax 9.38209 1.2585 -2.18652
lowerneck -7.46811 -2.45336 4.47536
upperneck 3.71895 -3.59631 -2.18947
head 2.35935 -1.79307 -1.63527
rclavicle 2.35684e-014 9.56651e-015
rhumerus -23.0092 -6.38357 -89.2278
rradius 44.6793
rwrist -10.2554
rhand -12.1222 9.60533
rfingers 7.12502
rthumb 13.9392 -19.9074
lclavicle 2.35684e-014 9.56651e-015
lhumerus -35.7027 14.4503 79.6583
lradius 18.1431
lwrist -40.5959
lhand -10.1479 -5.97073
lfingers 7.12502
lthumb 15.8412 23.4012
rfemur 1.23631 -5.96276 19.4396
rtibia 24.3631
rfoot -16.1961 16.2139
rtoes 0.597345
lfemur -23.453 8.62402 -15.1714
ltibia 39.5221
lfoot -8.00349 -0.833306
ltoes -12.5995
